<svg width="415" height="391" viewBox="0 0 415 391" fill="none" xmlns="http://www.w3.org/2000/svg">
<g clip-path="url(#clip0_1800_94)">
<path d="M206.313 351.484C206.997 351.824 207.745 352 208.493 352C209.241 352 209.989 351.824 210.673 351.484C240.143 336.807 264.872 316.666 284.176 291.632C307.372 261.523 316.092 232.534 321.291 215.214C331.419 181.492 335.006 146.147 331.938 110.137C331.735 107.758 329.796 105.87 327.4 105.719C307.551 104.473 287.991 100.52 269.285 93.9623C248.472 86.6743 229.548 76.5416 211.435 62.9724C209.699 61.6759 207.316 61.6759 205.566 62.9724C187.453 76.5413 168.529 86.6743 147.717 93.9623C128.995 100.52 109.45 104.473 89.601 105.719C87.1927 105.87 85.2662 107.745 85.0634 110.137C81.996 146.15 85.5704 181.496 95.7105 215.214C100.92 232.534 109.628 261.523 132.825 291.632C152.117 316.668 176.843 336.809 206.313 351.484Z" fill="#3178C6"/>
<path d="M206.313 351.484C206.997 351.824 207.745 352 208.493 352C209.241 352 209.989 351.824 210.673 351.484C240.143 336.807 264.872 316.666 284.176 291.632C307.372 261.523 316.092 232.534 321.291 215.214C331.418 181.492 335.006 146.147 331.938 110.137C331.735 107.758 329.796 105.87 327.4 105.719C307.551 104.473 287.991 100.52 269.285 93.9623C248.472 86.6743 229.548 76.5416 211.435 62.9724C209.699 61.6759 207.316 61.6759 205.566 62.9724C187.453 76.5413 168.529 86.6743 147.717 93.9623C128.995 100.52 109.45 104.473 89.601 105.719C87.1927 105.87 85.2662 107.745 85.0634 110.137C81.996 146.15 85.5704 181.496 95.7105 215.214C100.92 232.534 109.628 261.523 132.825 291.632C152.117 316.668 176.843 336.809 206.313 351.484ZM94.4295 115.057C113.721 113.484 132.722 109.456 150.949 103.074C171.293 95.9498 190.634 85.7791 208.48 72.8395C226.327 85.7791 245.67 95.9498 266.012 103.074C284.239 109.456 303.24 113.484 322.531 115.057C324.902 148.425 321.34 181.167 311.935 212.446C306.599 230.207 298.524 257.056 276.42 285.755C258.522 309.003 235.667 327.835 208.491 341.743C181.316 327.834 158.462 309.004 140.541 285.755C118.422 257.056 110.361 230.208 105.025 212.446C95.6331 181.18 92.0718 148.441 94.4295 115.057Z" fill="#358DEE"/>
<path d="M205.751 356.468C206.455 356.818 207.224 357 207.993 357C208.762 357 209.531 356.818 210.234 356.468C240.533 341.336 265.957 320.57 285.803 294.759C309.651 263.715 318.617 233.827 323.962 215.969C334.374 181.201 338.062 144.758 334.908 107.631C334.7 105.178 332.706 103.231 330.243 103.075C309.835 101.791 289.726 97.7155 270.493 90.9542C249.095 83.4401 229.64 72.9929 211.018 59.0025C209.232 57.6658 206.782 57.6658 204.984 59.0025C186.362 72.9926 166.906 83.4401 145.508 90.9542C126.26 97.7159 106.165 101.791 85.7585 103.075C83.2825 103.231 81.3018 105.165 81.0933 107.631C77.9397 144.761 81.6146 181.204 92.0397 215.969C97.3958 233.827 106.349 263.715 130.198 294.759C150.032 320.572 175.453 341.338 205.751 356.468ZM90.7227 112.704C110.557 111.082 130.092 106.929 148.831 100.349C169.747 93.0034 189.631 82.5171 207.98 69.1759C226.328 82.5171 246.215 93.0034 267.129 100.349C285.868 106.929 305.404 111.082 325.237 112.704C327.674 147.107 324.012 180.865 314.343 213.115C308.856 231.427 300.555 259.11 277.829 288.699C259.428 312.669 235.931 332.085 207.991 346.424C180.051 332.084 156.555 312.669 138.13 288.699C115.39 259.109 107.102 231.428 101.616 213.115C91.9601 180.878 88.2987 147.123 90.7227 112.704Z" fill="#358DEE"/>
<path fill-rule="evenodd" clip-rule="evenodd" d="M213.905 221.028V242.606C217.42 244.404 221.576 245.752 226.374 246.651C231.173 247.55 236.23 248 241.546 248C246.728 248 251.649 247.506 256.313 246.516C260.976 245.528 265.065 243.898 268.579 241.628C272.093 239.358 274.875 236.391 276.925 232.727C278.975 229.063 280 224.534 280 219.14C280 215.228 279.414 211.801 278.243 208.856C277.071 205.912 275.382 203.294 273.174 201.001C270.967 198.708 268.32 196.651 265.234 194.831C262.147 193.01 258.667 191.291 254.792 189.672C251.954 188.503 249.408 187.369 247.155 186.267C244.903 185.166 242.988 184.042 241.411 182.896C239.834 181.749 238.618 180.535 237.762 179.254C236.906 177.973 236.477 176.523 236.477 174.905C236.477 173.422 236.861 172.084 237.627 170.893C238.393 169.701 239.474 168.679 240.87 167.825C242.267 166.971 243.979 166.307 246.006 165.835C248.034 165.363 250.287 165.128 252.765 165.128C254.567 165.128 256.47 165.263 258.475 165.532C260.48 165.802 262.496 166.218 264.524 166.779C266.551 167.341 268.522 168.05 270.437 168.903C272.352 169.758 274.12 170.747 275.742 171.871V151.709C272.454 150.45 268.86 149.517 264.963 148.91C261.066 148.303 256.594 148 251.548 148C246.412 148 241.546 148.551 236.951 149.652C232.355 150.753 228.312 152.473 224.82 154.81C221.328 157.148 218.569 160.126 216.541 163.745C214.514 167.364 213.5 171.691 213.5 176.725C213.5 183.154 215.359 188.638 219.076 193.179C222.792 197.719 228.435 201.563 236.005 204.709C238.978 205.923 241.749 207.114 244.317 208.283C246.885 209.452 249.104 210.666 250.974 211.925C252.843 213.183 254.319 214.554 255.401 216.038C256.482 217.521 257.023 219.207 257.023 221.095C257.023 222.489 256.684 223.781 256.009 224.972C255.333 226.164 254.308 227.197 252.934 228.074C251.56 228.951 249.847 229.636 247.798 230.131C245.747 230.625 243.349 230.872 240.6 230.872C235.914 230.872 231.274 230.052 226.678 228.411C222.083 226.771 217.825 224.309 213.905 221.028ZM177.564 167.863H205.295V150.155H128V167.863H155.596V246.707H177.564V167.863Z" fill="white"/>
<mask id="mask0_1800_94" style="mask-type:alpha" maskUnits="userSpaceOnUse" x="0" y="0" width="415" height="391">
<path fill-rule="evenodd" clip-rule="evenodd" d="M415 0H0V391H415V0ZM207.992 363C207.188 363 206.383 362.81 205.646 362.445C173.927 346.657 147.315 324.988 126.551 298.052C101.604 265.685 92.2262 234.521 86.6175 215.882L86.6041 215.837C75.6903 179.561 71.8431 141.534 75.1446 102.789C75.3628 100.216 77.4363 98.1978 80.0284 98.0353C101.392 96.6947 122.429 92.4426 142.579 85.387C164.979 77.5462 185.348 66.6445 204.843 52.0461C206.725 50.6513 209.29 50.6513 211.159 52.0461C230.654 66.6448 251.022 77.5462 273.423 85.387C293.557 92.4423 314.609 96.6946 335.973 98.0353C338.551 98.1979 340.639 100.229 340.857 102.789C344.159 141.53 340.298 179.557 329.397 215.837C323.802 234.471 314.416 265.659 289.451 298.052C268.674 324.986 242.058 346.655 210.339 362.445C209.602 362.81 208.797 363 207.992 363Z" fill="#D9D9D9"/>
</mask>
<g mask="url(#mask0_1800_94)">
<path d="M58.127 195.836C67.209 200.621 73.8496 205.309 78.0488 209.898C82.3457 214.488 85.5195 219.225 87.5703 224.107C89.7188 228.893 90.793 234.41 90.793 240.66C90.793 246.227 89.8164 253.502 87.8633 262.486L84.2012 279.186C82.248 288.268 81.2715 295.006 81.2715 299.4C81.2715 305.357 83.5664 310.387 88.1562 314.488C92.8438 318.688 102.414 320.787 116.867 320.787H139.572V343.492H116.574C89.8164 343.492 72.5801 339.195 64.8652 330.602C57.1504 322.008 53.293 312.291 53.293 301.451C53.293 295.689 54.0254 289.488 55.4902 282.848L58.127 271.129L60.6172 258.385L62.375 250.621C63.0586 247.008 63.4004 243.492 63.4004 240.074C63.4004 230.992 60.3242 223.229 54.1719 216.783C48.1172 210.338 37.375 207.115 21.9453 207.115H8.9082V184.41H21.9453C37.1797 184.41 47.873 181.236 54.0254 174.889C60.2754 168.541 63.4004 160.631 63.4004 151.158C63.4004 147.643 63.0586 144.225 62.375 140.904L60.6172 133.287L58.127 120.543L55.4902 108.824C54.0254 102.086 53.293 95.8359 53.293 90.0742C53.293 79.332 57.1504 69.6641 64.8652 61.0703C72.5801 52.3789 89.8164 48.0332 116.574 48.0332H139.572V70.8848H116.867C102.512 70.8848 92.9902 72.9844 88.3027 77.1836C83.6152 81.2852 81.2715 86.3633 81.2715 92.418C81.2715 96.7148 82.248 103.404 84.2012 112.486L87.8633 129.186C89.8164 138.17 90.793 145.445 90.793 151.012C90.793 157.262 89.7188 162.828 87.5703 167.711C85.5195 172.496 82.3457 177.184 78.0488 181.773C73.8496 186.363 67.209 191.051 58.127 195.836Z" fill="#BFC9D4"/>
<path d="M357.902 195.836C348.82 191.051 342.131 186.363 337.834 181.773C333.635 177.184 330.51 172.496 328.459 167.711C326.408 162.828 325.383 157.262 325.383 151.012C325.383 145.445 326.311 138.17 328.166 129.186L331.828 112.486C333.781 103.404 334.758 96.666 334.758 92.2715C334.758 86.3144 332.414 81.2851 327.727 77.1836C323.137 72.9844 313.615 70.8848 299.162 70.8848L276.457 70.8848L276.457 48.0332L299.455 48.0332C326.213 48.0332 343.449 52.3789 351.164 61.0703C358.977 69.664 362.883 79.332 362.883 90.0742C362.883 95.9336 362.102 102.184 360.539 108.824L357.902 120.543L355.412 133.287L353.654 140.904C352.971 144.615 352.629 148.18 352.629 151.598C352.629 160.582 355.656 168.297 361.711 174.742C367.863 181.187 378.654 184.41 394.084 184.41L407.121 184.41L407.121 207.115L394.084 207.115C378.85 207.115 368.107 210.338 361.857 216.783C355.705 223.131 352.629 231.041 352.629 240.514C352.629 243.932 352.971 247.301 353.654 250.621L355.412 258.385L357.902 271.129L360.539 282.848C362.102 289.586 362.883 295.836 362.883 301.598C362.883 312.437 358.977 322.105 351.164 330.602C343.449 339.195 326.213 343.492 299.455 343.492L276.457 343.492L276.457 320.787L299.162 320.787C313.615 320.787 323.137 318.687 327.727 314.488C332.414 310.387 334.758 305.309 334.758 299.254C334.758 294.957 333.781 288.268 331.828 279.186L328.166 262.486C326.311 253.502 325.383 246.227 325.383 240.66C325.383 234.41 326.408 228.893 328.459 224.107C330.51 219.225 333.635 214.488 337.834 209.898C342.131 205.309 348.82 200.621 357.902 195.836Z" fill="#BFC9D4"/>
</g>
</g>
<defs>
<clipPath id="clip0_1800_94">
<rect width="415" height="391" fill="white"/>
</clipPath>
</defs>
</svg>
